<?xml version="1.0" standalone="no"?>
<!DOCTYPE svg PUBLIC "-//W3C//DTD SVG 20010904//EN"
 "http://www.w3.org/TR/2001/REC-SVG-20010904/DTD/svg10.dtd">
<svg version="1.0" xmlns="http://www.w3.org/2000/svg"
 width="700.000000pt" height="700.000000pt" viewBox="0 0 700.000000 700.000000"
 preserveAspectRatio="xMidYMid meet">
<metadata>
Created by potrace 1.14, written by Peter Selinger 2001-2017
</metadata>
<g transform="translate(0.000000,700.000000) scale(0.100000,-0.100000)"
fill="#000000" stroke="none">
<path d="M5528 6555 c-52 -38 -129 -123 -164 -182 -32 -52 -65 -145 -73 -203
-1 -3 -16 -12 -33 -19 -42 -18 -123 -101 -171 -173 -42 -64 -117 -207 -167
-318 -70 -157 -72 -161 -89 -156 -14 4 -44 7 -191 21 -19 2 -73 6 -120 10 -47
3 -105 8 -130 10 -115 10 -378 18 -610 18 -323 -1 -953 -10 -1045 -17 -38 -2
-117 -7 -175 -10 -58 -4 -118 -8 -135 -11 -16 -3 -64 -7 -105 -10 -41 -3 -84
-7 -95 -10 -11 -2 -47 -7 -80 -10 -33 -3 -76 -8 -95 -11 -19 -3 -51 -7 -70 -9
-19 -3 -44 -7 -55 -9 -11 -2 -45 -7 -75 -11 -146 -18 -441 -73 -492 -91 -231
-81 -406 -312 -391 -514 13 -180 182 -367 406 -450 53 -20 57 -23 57 -54 0
-28 -10 -42 -72 -97 -381 -336 -682 -749 -843 -1154 -5 -11 -9 -22 -10 -25 -1
-3 -9 -30 -19 -60 -28 -87 -46 -152 -52 -190 -3 -19 -7 -41 -10 -49 -24 -71
-25 -372 -1 -487 79 -380 320 -686 733 -930 102 -60 112 -68 104 -87 -4 -12
-41 -98 -81 -192 -66 -154 -73 -176 -73 -236 0 -201 211 -302 424 -201 41 19
94 66 223 195 l170 170 111 -36 c269 -89 608 -149 981 -174 216 -15 897 -7
1015 11 14 2 63 7 110 11 264 20 566 78 940 181 9 3 67 -48 148 -130 153 -156
229 -216 310 -246 72 -27 122 -27 192 -1 101 38 160 124 160 233 0 40 -16 89
-80 240 -44 105 -80 195 -80 199 0 5 24 21 53 35 117 60 285 176 381 264 304
281 439 584 431 969 -2 80 -6 157 -9 171 -4 14 -9 39 -12 55 -58 326 -239 691
-508 1025 -34 41 -68 84 -76 95 -30 39 -380 385 -390 385 -23 0 -8 21 29 40
38 19 101 76 183 165 20 22 57 60 82 85 94 90 132 174 135 294 3 126 -53 252
-157 354 -101 98 -224 156 -380 177 -20 3 -48 8 -62 11 -46 11 -62 13 -179 30
-64 9 -123 20 -132 23 -13 5 4 37 85 164 l101 157 24 -27 c23 -26 23 -26 55
-9 71 39 71 39 72 140 l1 92 119 146 c65 79 134 163 152 186 18 22 45 53 58
69 45 50 63 79 56 89 -30 41 -154 101 -224 107 -38 4 -51 0 -90 -28z"/>
</g>
</svg>
