<?xml version="1.0" standalone="no"?>
<!DOCTYPE svg PUBLIC "-//W3C//DTD SVG 20010904//EN"
 "http://www.w3.org/TR/2001/REC-SVG-20010904/DTD/svg10.dtd">
<svg version="1.0" xmlns="http://www.w3.org/2000/svg"
 width="512.000000pt" height="512.000000pt" viewBox="0 0 512.000000 512.000000"
 preserveAspectRatio="xMidYMid meet">
<metadata>
Created by potrace 1.14, written by Peter Selinger 2001-2017
</metadata>
<g transform="translate(0.000000,512.000000) scale(0.100000,-0.100000)"
fill="#000000" stroke="none">
<path d="M4055 4801 c-75 -46 -161 -169 -180 -259 -4 -22 -16 -37 -37 -48 -66
-34 -154 -166 -239 -356 -29 -64 -55 -115 -59 -113 -3 2 -40 6 -81 9 -41 4
-85 8 -99 10 -160 27 -1277 28 -1530 1 -19 -2 -69 -6 -110 -9 -41 -4 -86 -8
-100 -11 -14 -2 -52 -7 -85 -10 -71 -7 -229 -30 -340 -50 -44 -7 -96 -16 -115
-20 -178 -30 -316 -146 -363 -307 -45 -152 74 -335 266 -410 32 -13 60 -31 63
-41 4 -13 -32 -55 -143 -166 -319 -317 -497 -606 -582 -941 -26 -105 -34 -271
-17 -380 32 -206 152 -412 323 -554 99 -82 101 -84 280 -192 21 -13 21 -14
-39 -155 -69 -163 -76 -216 -36 -272 44 -63 93 -89 167 -89 94 0 140 28 283
169 l128 127 77 -27 c126 -43 332 -88 463 -102 36 -4 73 -9 82 -10 99 -19 631
-27 853 -12 257 17 550 65 748 122 l89 26 122 -119 c170 -165 249 -200 352
-157 48 20 71 41 94 85 30 58 20 118 -44 268 -31 74 -56 135 -56 136 0 2 37
25 83 51 317 184 510 442 545 730 8 61 7 214 -2 273 -35 247 -176 537 -390
802 -72 89 -274 297 -315 324 l-29 20 42 27 c58 37 231 219 257 271 33 65 37
167 9 238 -40 101 -133 195 -236 238 -43 18 -191 48 -378 76 -22 4 -41 8 -42
9 -1 1 29 49 67 107 38 58 71 110 73 115 3 6 12 1 21 -10 16 -20 16 -20 53 1
36 21 37 23 40 90 3 65 6 73 50 129 25 33 49 62 52 65 3 3 46 55 96 116 103
125 103 125 18 167 -71 36 -113 41 -149 18z"/>
</g>
</svg>
